<svg viewBox="0 0 1200 680" xmlns="http://www.w3.org/2000/svg" style="background:#ffffff; font-family: -apple-system, BlinkMacSystemFont, 'Segoe UI', Roboto, sans-serif;">
  <text x="600" y="40" text-anchor="middle" font-size="22" font-weight="bold" fill="#1a1a2e">EWS POC — Snowflake Compute-Only Architecture</text>
  <text x="600" y="62" text-anchor="middle" font-size="13" fill="#666">Data remains in EWS-owned S3 (Iceberg) | Snowflake provides compute, governance, and AI</text>
  <rect x="30" y="90" width="1140" height="80" rx="8" fill="#fff3e0" stroke="#e65100" stroke-width="1.5"/>
  <text x="60" y="115" font-size="12" font-weight="bold" fill="#e65100">EWS-OWNED S3 (Apache Iceberg Format)</text>
  <rect x="60" y="125" width="140" height="32" rx="4" fill="#ffffff" stroke="#e65100" stroke-width="1"/>
  <text x="130" y="146" text-anchor="middle" font-size="10" fill="#333">Bronze Iceberg</text>
  <rect x="220" y="125" width="140" height="32" rx="4" fill="#ffffff" stroke="#e65100" stroke-width="1"/>
  <text x="290" y="146" text-anchor="middle" font-size="10" fill="#333">Silver Iceberg</text>
  <rect x="380" y="125" width="140" height="32" rx="4" fill="#ffffff" stroke="#e65100" stroke-width="1"/>
  <text x="450" y="146" text-anchor="middle" font-size="10" fill="#333">Gold Iceberg</text>
  <rect x="540" y="125" width="160" height="32" rx="4" fill="#ffffff" stroke="#e65100" stroke-width="1"/>
  <text x="620" y="146" text-anchor="middle" font-size="10" fill="#333">Feature Store Iceberg</text>
  <rect x="720" y="125" width="160" height="32" rx="4" fill="#ffffff" stroke="#e65100" stroke-width="1"/>
  <text x="800" y="146" text-anchor="middle" font-size="10" fill="#333">Metadata + Snapshots</text>
  <rect x="900" y="125" width="240" height="32" rx="4" fill="#ffffff" stroke="#e65100" stroke-width="1"/>
  <text x="1020" y="146" text-anchor="middle" font-size="10" fill="#333">External Volume (ALLOW_WRITES=TRUE)</text>
  <rect x="30" y="190" width="1140" height="420" rx="10" fill="#e3f2fd" stroke="#29B5E8" stroke-width="2"/>
  <text x="60" y="215" font-size="14" font-weight="bold" fill="#0277bd">SNOWFLAKE COMPUTE LAYER</text>
  <rect x="50" y="230" width="340" height="160" rx="6" fill="#ffffff" stroke="#1565c0" stroke-width="1.5"/>
  <text x="70" y="252" font-size="11" font-weight="bold" fill="#1565c0">INGESTION (UC01 + UC02)</text>
  <rect x="65" y="262" width="145" height="50" rx="4" fill="#e8f5e9" stroke="#2e7d32" stroke-width="1"/>
  <text x="137" y="282" text-anchor="middle" font-size="9" font-weight="bold" fill="#2e7d32">Batch</text>
  <text x="137" y="298" text-anchor="middle" font-size="8" fill="#333">COPY INTO + DMFs</text>
  <rect x="225" y="262" width="150" height="50" rx="4" fill="#e8f5e9" stroke="#2e7d32" stroke-width="1"/>
  <text x="300" y="282" text-anchor="middle" font-size="9" font-weight="bold" fill="#2e7d32">Streaming</text>
  <text x="300" y="298" text-anchor="middle" font-size="8" fill="#333">Snowpipe Streaming</text>
  <rect x="65" y="322" width="310" height="55" rx="4" fill="#fce4ec" stroke="#c62828" stroke-width="1"/>
  <text x="220" y="342" text-anchor="middle" font-size="9" font-weight="bold" fill="#c62828">Error Handling</text>
  <text x="220" y="358" text-anchor="middle" font-size="8" fill="#333">ON_ERROR=CONTINUE | VALIDATE() | Dead Letter</text>
  <text x="220" y="372" text-anchor="middle" font-size="8" fill="#333">Partial acceptance without aborting batch</text>
  <rect x="410" y="230" width="360" height="160" rx="6" fill="#ffffff" stroke="#1565c0" stroke-width="1.5"/>
  <text x="430" y="252" font-size="11" font-weight="bold" fill="#1565c0">PIPELINE (UC03)</text>
  <rect x="425" y="262" width="100" height="45" rx="4" fill="#fff8e1" stroke="#f57f17" stroke-width="1"/>
  <text x="475" y="280" text-anchor="middle" font-size="9" font-weight="bold" fill="#f57f17">Bronze</text>
  <text x="475" y="296" text-anchor="middle" font-size="8" fill="#333">Raw</text>
  <path d="M530 284 L545 284" stroke="#333" stroke-width="1.5" marker-end="url(#arrowhead)"/>
  <rect x="550" y="262" width="100" height="45" rx="4" fill="#e8eaf6" stroke="#283593" stroke-width="1"/>
  <text x="600" y="280" text-anchor="middle" font-size="9" font-weight="bold" fill="#283593">Silver</text>
  <text x="600" y="296" text-anchor="middle" font-size="8" fill="#333">Dynamic Table</text>
  <path d="M655 284 L670 284" stroke="#333" stroke-width="1.5" marker-end="url(#arrowhead)"/>
  <rect x="675" y="262" width="80" height="45" rx="4" fill="#e0f2f1" stroke="#00695c" stroke-width="1"/>
  <text x="715" y="280" text-anchor="middle" font-size="9" font-weight="bold" fill="#00695c">Gold</text>
  <text x="715" y="296" text-anchor="middle" font-size="8" fill="#333">Dynamic Table</text>
  <rect x="425" y="320" width="330" height="58" rx="4" fill="#f3e5f5" stroke="#6a1b9a" stroke-width="1"/>
  <text x="590" y="340" text-anchor="middle" font-size="9" font-weight="bold" fill="#6a1b9a">Quality Gates (DMFs)</text>
  <text x="590" y="356" text-anchor="middle" font-size="8" fill="#333">Data Metric Functions block zone promotion</text>
  <text x="590" y="370" text-anchor="middle" font-size="8" fill="#333">Quarantine non-conforming records</text>
  <rect x="790" y="230" width="360" height="160" rx="6" fill="#ffffff" stroke="#1565c0" stroke-width="1.5"/>
  <text x="810" y="252" font-size="11" font-weight="bold" fill="#1565c0">FEATURE STORE (UC04-05)</text>
  <rect x="805" y="262" width="155" height="50" rx="4" fill="#e1f5fe" stroke="#0277bd" stroke-width="1"/>
  <text x="882" y="280" text-anchor="middle" font-size="9" font-weight="bold" fill="#0277bd">Online Features</text>
  <text x="882" y="296" text-anchor="middle" font-size="8" fill="#333">DT: 1-min lag from stream</text>
  <rect x="975" y="262" width="155" height="50" rx="4" fill="#e1f5fe" stroke="#0277bd" stroke-width="1"/>
  <text x="1052" y="280" text-anchor="middle" font-size="9" font-weight="bold" fill="#0277bd">Offline Features</text>
  <text x="1052" y="296" text-anchor="middle" font-size="8" fill="#333">Time Travel + Bi-temporal</text>
  <rect x="805" y="322" width="325" height="55" rx="4" fill="#e8f5e9" stroke="#2e7d32" stroke-width="1"/>
  <text x="967" y="342" text-anchor="middle" font-size="9" font-weight="bold" fill="#2e7d32">Rematerialization</text>
  <text x="967" y="358" text-anchor="middle" font-size="8" fill="#333">ALTER DYNAMIC TABLE REFRESH rebuilds from Gold</text>
  <text x="967" y="372" text-anchor="middle" font-size="8" fill="#333">No stream replay | No custom backfill</text>
  <rect x="50" y="405" width="540" height="100" rx="6" fill="#ffffff" stroke="#1565c0" stroke-width="1.5"/>
  <text x="70" y="427" font-size="11" font-weight="bold" fill="#1565c0">ANALYTICS + AI (UC09, UC13-14)</text>
  <rect x="65" y="437" width="155" height="55" rx="4" fill="#ede7f6" stroke="#4527a0" stroke-width="1"/>
  <text x="142" y="455" text-anchor="middle" font-size="9" font-weight="bold" fill="#4527a0">Multi-Cluster WH</text>
  <text x="142" y="471" text-anchor="middle" font-size="8" fill="#333">Auto-scale 1-10 clusters</text>
  <text x="142" y="484" text-anchor="middle" font-size="8" fill="#333">Query Acceleration</text>
  <rect x="235" y="437" width="155" height="55" rx="4" fill="#ede7f6" stroke="#4527a0" stroke-width="1"/>
  <text x="312" y="455" text-anchor="middle" font-size="9" font-weight="bold" fill="#4527a0">Cortex Analyst</text>
  <text x="312" y="471" text-anchor="middle" font-size="8" fill="#333">NL-to-SQL (native)</text>
  <text x="312" y="484" text-anchor="middle" font-size="8" fill="#333">Semantic YAML model</text>
  <rect x="405" y="437" width="170" height="55" rx="4" fill="#ede7f6" stroke="#4527a0" stroke-width="1"/>
  <text x="490" y="455" text-anchor="middle" font-size="9" font-weight="bold" fill="#4527a0">Cortex Agents + LLMs</text>
  <text x="490" y="471" text-anchor="middle" font-size="8" fill="#333">Agentic pipeline gen</text>
  <text x="490" y="484" text-anchor="middle" font-size="8" fill="#333">CORTEX.COMPLETE in SQL</text>
  <rect x="610" y="405" width="540" height="100" rx="6" fill="#ffffff" stroke="#1565c0" stroke-width="1.5"/>
  <text x="630" y="427" font-size="11" font-weight="bold" fill="#1565c0">GOVERNANCE + SHARING (UC10-11)</text>
  <rect x="625" y="437" width="155" height="55" rx="4" fill="#fff3e0" stroke="#e65100" stroke-width="1"/>
  <text x="702" y="455" text-anchor="middle" font-size="9" font-weight="bold" fill="#e65100">Snowflake Horizon</text>
  <text x="702" y="471" text-anchor="middle" font-size="8" fill="#333">Tags | Classification</text>
  <text x="702" y="484" text-anchor="middle" font-size="8" fill="#333">Row Access Policies</text>
  <rect x="795" y="437" width="155" height="55" rx="4" fill="#fff3e0" stroke="#e65100" stroke-width="1"/>
  <text x="872" y="455" text-anchor="middle" font-size="9" font-weight="bold" fill="#e65100">Data Sharing</text>
  <text x="872" y="471" text-anchor="middle" font-size="8" fill="#333">Zero-copy shares</text>
  <text x="872" y="484" text-anchor="middle" font-size="8" fill="#333">No ETL, instant access</text>
  <rect x="965" y="437" width="165" height="55" rx="4" fill="#fff3e0" stroke="#e65100" stroke-width="1"/>
  <text x="1047" y="455" text-anchor="middle" font-size="9" font-weight="bold" fill="#e65100">Marketplace</text>
  <text x="1047" y="471" text-anchor="middle" font-size="8" fill="#333">Vendor data (1 command)</text>
  <text x="1047" y="484" text-anchor="middle" font-size="8" fill="#333">Sanctions, fraud signals</text>
  <rect x="30" y="525" width="1140" height="35" rx="6" fill="#29B5E8" stroke="none"/>
  <text x="600" y="547" text-anchor="middle" font-size="12" font-weight="bold" fill="#ffffff">Snowflake AI Data Cloud — One Platform, Zero Data Movement, Full Governance</text>
  <defs>
    <marker id="arrowhead" markerWidth="10" markerHeight="7" refX="10" refY="3.5" orient="auto">
      <polygon points="0 0, 10 3.5, 0 7" fill="#333"/>
    </marker>
  </defs>
</svg>
