<svg viewBox="0 0 900 320" xmlns="http://www.w3.org/2000/svg" style="background:#ffffff; font-family: -apple-system, BlinkMacSystemFont, 'Segoe UI', Roboto, sans-serif;">
  <text x="450" y="30" text-anchor="middle" font-size="16" font-weight="bold" fill="#1a1a2e">UC01: Batch Ingestion with Partial Acceptance</text>
  <rect x="30" y="60" width="160" height="200" rx="6" fill="#f5f5f5" stroke="#757575" stroke-width="1.5"/>
  <text x="110" y="82" text-anchor="middle" font-size="11" font-weight="bold" fill="#333">Source Files (S3)</text>
  <rect x="45" y="95" width="130" height="30" rx="3" fill="#e8f5e9" stroke="#43a047"/>
  <text x="110" y="115" text-anchor="middle" font-size="9" fill="#333">Delimited (CSV/TSV)</text>
  <rect x="45" y="135" width="130" height="30" rx="3" fill="#e3f2fd" stroke="#1e88e5"/>
  <text x="110" y="155" text-anchor="middle" font-size="9" fill="#333">Fixed-Width</text>
  <rect x="45" y="175" width="130" height="30" rx="3" fill="#fff3e0" stroke="#fb8c00"/>
  <text x="110" y="195" text-anchor="middle" font-size="9" fill="#333">EBCDIC (converted)</text>
  <rect x="45" y="215" width="130" height="30" rx="3" fill="#fce4ec" stroke="#e53935"/>
  <text x="110" y="235" text-anchor="middle" font-size="9" fill="#333">Mixed valid + invalid</text>
  <path d="M195 160 L260 160" stroke="#333" stroke-width="2" marker-end="url(#arr1)"/>
  <text x="228" y="150" text-anchor="middle" font-size="8" fill="#666">COPY INTO</text>
  <rect x="265" y="70" width="320" height="190" rx="8" fill="#e3f2fd" stroke="#29B5E8" stroke-width="2"/>
  <text x="425" y="92" text-anchor="middle" font-size="11" font-weight="bold" fill="#0277bd">Snowflake Processing</text>
  <rect x="280" y="105" width="140" height="40" rx="4" fill="#ffffff" stroke="#1565c0"/>
  <text x="350" y="122" text-anchor="middle" font-size="9" font-weight="bold" fill="#1565c0">ON_ERROR=CONTINUE</text>
  <text x="350" y="137" text-anchor="middle" font-size="8" fill="#333">Partial acceptance</text>
  <rect x="435" y="105" width="135" height="40" rx="4" fill="#ffffff" stroke="#1565c0"/>
  <text x="502" y="122" text-anchor="middle" font-size="9" font-weight="bold" fill="#1565c0">VALIDATE()</text>
  <text x="502" y="137" text-anchor="middle" font-size="8" fill="#333">Extract rejects</text>
  <rect x="280" y="160" width="290" height="40" rx="4" fill="#ffffff" stroke="#6a1b9a"/>
  <text x="425" y="177" text-anchor="middle" font-size="9" font-weight="bold" fill="#6a1b9a">Data Metric Functions (DMFs)</text>
  <text x="425" y="193" text-anchor="middle" font-size="8" fill="#333">Null rate | Format validation | Range checks</text>
  <rect x="280" y="212" width="290" height="35" rx="4" fill="#e8f5e9" stroke="#2e7d32"/>
  <text x="425" y="234" text-anchor="middle" font-size="9" fill="#2e7d32">ACID-compliant writes to Iceberg</text>
  <path d="M590 140 L650 110" stroke="#2e7d32" stroke-width="2" marker-end="url(#arr1)"/>
  <path d="M590 180 L650 210" stroke="#c62828" stroke-width="2" marker-end="url(#arr1)"/>
  <rect x="655" y="75" width="210" height="55" rx="6" fill="#e8f5e9" stroke="#2e7d32" stroke-width="1.5"/>
  <text x="760" y="97" text-anchor="middle" font-size="10" font-weight="bold" fill="#2e7d32">Bronze Iceberg Table</text>
  <text x="760" y="115" text-anchor="middle" font-size="9" fill="#333">Valid records loaded</text>
  <rect x="655" y="185" width="210" height="55" rx="6" fill="#fce4ec" stroke="#c62828" stroke-width="1.5"/>
  <text x="760" y="207" text-anchor="middle" font-size="10" font-weight="bold" fill="#c62828">Dead Letter Table</text>
  <text x="760" y="225" text-anchor="middle" font-size="9" fill="#333">Rejected records + reason</text>
  <rect x="265" y="270" width="600" height="35" rx="4" fill="#29B5E8" stroke="none"/>
  <text x="565" y="292" text-anchor="middle" font-size="10" font-weight="bold" fill="#ffffff">Snowflake Advantage: Native partial acceptance + VALIDATE() — no custom Spark error handling needed</text>
  <defs><marker id="arr1" markerWidth="10" markerHeight="7" refX="10" refY="3.5" orient="auto"><polygon points="0 0, 10 3.5, 0 7" fill="#333"/></marker></defs>
</svg>
