<svg viewBox="0 0 900 320" xmlns="http://www.w3.org/2000/svg" style="background:#ffffff; font-family: -apple-system, BlinkMacSystemFont, 'Segoe UI', Roboto, sans-serif;">
  <text x="450" y="30" text-anchor="middle" font-size="16" font-weight="bold" fill="#1a1a2e">UC02: Snowpipe Streaming — No Kafka Required</text>
  <rect x="30" y="70" width="150" height="160" rx="6" fill="#f5f5f5" stroke="#757575" stroke-width="1.5"/>
  <text x="105" y="92" text-anchor="middle" font-size="10" font-weight="bold" fill="#333">Event Sources</text>
  <rect x="45" y="105" width="120" height="25" rx="3" fill="#e8eaf6" stroke="#3949ab"/>
  <text x="105" y="122" text-anchor="middle" font-size="8" fill="#333">Transaction events</text>
  <rect x="45" y="138" width="120" height="25" rx="3" fill="#e8eaf6" stroke="#3949ab"/>
  <text x="105" y="155" text-anchor="middle" font-size="8" fill="#333">Fraud alerts</text>
  <rect x="45" y="171" width="120" height="25" rx="3" fill="#e8eaf6" stroke="#3949ab"/>
  <text x="105" y="188" text-anchor="middle" font-size="8" fill="#333">Member activity</text>
  <rect x="45" y="204" width="120" height="16" rx="3" fill="#ffcdd2" stroke="#e53935"/>
  <text x="105" y="215" text-anchor="middle" font-size="7" fill="#c62828">+ duplicates + late events</text>
  <path d="M185 150 L240 150" stroke="#333" stroke-width="2" marker-end="url(#arr2)"/>
  <rect x="245" y="80" width="200" height="140" rx="8" fill="#e8f5e9" stroke="#2e7d32" stroke-width="2"/>
  <text x="345" y="102" text-anchor="middle" font-size="10" font-weight="bold" fill="#2e7d32">Snowpipe Streaming SDK</text>
  <text x="345" y="120" text-anchor="middle" font-size="9" fill="#333">Python / Java / Node.js</text>
  <rect x="260" y="130" width="170" height="25" rx="3" fill="#ffffff" stroke="#2e7d32"/>
  <text x="345" y="147" text-anchor="middle" font-size="8" fill="#333">channel.append_row(event)</text>
  <rect x="260" y="163" width="170" height="25" rx="3" fill="#ffffff" stroke="#2e7d32"/>
  <text x="345" y="180" text-anchor="middle" font-size="8" fill="#333">Offset-based exactly-once</text>
  <rect x="260" y="196" width="170" height="16" rx="3" fill="#c8e6c9" stroke="#2e7d32"/>
  <text x="345" y="207" text-anchor="middle" font-size="7" fill="#1b5e20">~20 lines of code total</text>
  <path d="M450 150 L505 150" stroke="#333" stroke-width="2" marker-end="url(#arr2)"/>
  <rect x="510" y="90" width="160" height="120" rx="8" fill="#e3f2fd" stroke="#1565c0" stroke-width="2"/>
  <text x="590" y="112" text-anchor="middle" font-size="10" font-weight="bold" fill="#1565c0">PIPE Object</text>
  <text x="590" y="130" text-anchor="middle" font-size="8" fill="#333">Schema enforcement</text>
  <text x="590" y="145" text-anchor="middle" font-size="8" fill="#333">MATCH_BY_COLUMN_NAME</text>
  <text x="590" y="160" text-anchor="middle" font-size="8" fill="#333">Server-side validation</text>
  <rect x="525" y="170" width="130" height="25" rx="3" fill="#bbdefb" stroke="#1565c0"/>
  <text x="590" y="187" text-anchor="middle" font-size="8" fill="#0d47a1">Sub-second latency</text>
  <path d="M675 150 L730 150" stroke="#333" stroke-width="2" marker-end="url(#arr2)"/>
  <rect x="735" y="80" width="140" height="140" rx="8" fill="#fff3e0" stroke="#e65100" stroke-width="2"/>
  <text x="805" y="105" text-anchor="middle" font-size="10" font-weight="bold" fill="#e65100">Bronze Iceberg</text>
  <text x="805" y="125" text-anchor="middle" font-size="9" fill="#333">EWS-owned S3</text>
  <rect x="748" y="137" width="114" height="22" rx="3" fill="#ffffff" stroke="#e65100"/>
  <text x="805" y="152" text-anchor="middle" font-size="8" fill="#333">Event-time ordered</text>
  <rect x="748" y="165" width="114" height="22" rx="3" fill="#ffffff" stroke="#e65100"/>
  <text x="805" y="180" text-anchor="middle" font-size="8" fill="#333">Deduplicated</text>
  <rect x="748" y="193" width="114" height="22" rx="3" fill="#ffffff" stroke="#e65100"/>
  <text x="805" y="208" text-anchor="middle" font-size="8" fill="#333">Immediately queryable</text>
  <rect x="245" y="240" width="630" height="45" rx="6" fill="#ffebee" stroke="#c62828" stroke-width="1"/>
  <text x="560" y="258" text-anchor="middle" font-size="9" font-weight="bold" fill="#c62828">ELIMINATED by Snowpipe Streaming:</text>
  <text x="560" y="275" text-anchor="middle" font-size="9" fill="#c62828">Kafka brokers | Kafka Connect | Schema Registry | Consumer groups | Exactly-once config | Monitoring stack</text>
  <defs><marker id="arr2" markerWidth="10" markerHeight="7" refX="10" refY="3.5" orient="auto"><polygon points="0 0, 10 3.5, 0 7" fill="#333"/></marker></defs>
</svg>
