<svg viewBox="0 0 900 350" xmlns="http://www.w3.org/2000/svg" style="background:#ffffff; font-family: -apple-system, BlinkMacSystemFont, 'Segoe UI', Roboto, sans-serif;">
  <text x="450" y="30" text-anchor="middle" font-size="16" font-weight="bold" fill="#1a1a2e">UC03: Declarative Pipeline &#8212; Dynamic Tables</text>
  <text x="450" y="50" text-anchor="middle" font-size="11" fill="#666">No orchestrator. No DAG definition. No cron. Snowflake infers and schedules everything.</text>
  <rect x="30" y="80" width="180" height="140" rx="8" fill="#fff8e1" stroke="#f57f17" stroke-width="2"/>
  <text x="120" y="102" text-anchor="middle" font-size="12" font-weight="bold" fill="#f57f17">BRONZE</text>
  <text x="120" y="118" text-anchor="middle" font-size="9" fill="#333">Raw Iceberg Tables</text>
  <rect x="45" y="128" width="150" height="20" rx="3" fill="#ffffff" stroke="#f57f17"/>
  <text x="120" y="142" text-anchor="middle" font-size="8" fill="#333">RAW_TRANSACTIONS</text>
  <rect x="45" y="155" width="150" height="20" rx="3" fill="#ffffff" stroke="#f57f17"/>
  <text x="120" y="169" text-anchor="middle" font-size="8" fill="#333">RAW_MEMBERS</text>
  <rect x="45" y="182" width="150" height="20" rx="3" fill="#ffffff" stroke="#f57f17"/>
  <text x="120" y="196" text-anchor="middle" font-size="8" fill="#333">STREAMING_EVENTS</text>
  <path d="M215 150 L270 150" stroke="#6a1b9a" stroke-width="2" stroke-dasharray="5,3" marker-end="url(#arr3)"/>
  <rect x="225" y="130" width="40" height="16" rx="3" fill="#f3e5f5" stroke="#6a1b9a"/>
  <text x="245" y="141" text-anchor="middle" font-size="7" fill="#6a1b9a">DMF</text>
  <rect x="275" y="80" width="220" height="140" rx="8" fill="#e8eaf6" stroke="#283593" stroke-width="2"/>
  <text x="385" y="102" text-anchor="middle" font-size="12" font-weight="bold" fill="#283593">SILVER</text>
  <text x="385" y="118" text-anchor="middle" font-size="9" fill="#333">Dynamic Tables (INCREMENTAL)</text>
  <rect x="290" y="128" width="190" height="22" rx="3" fill="#ffffff" stroke="#283593"/>
  <text x="385" y="143" text-anchor="middle" font-size="8" fill="#333">DT: CLEANSED_TRANSACTIONS</text>
  <rect x="290" y="155" width="190" height="22" rx="3" fill="#ffffff" stroke="#283593"/>
  <text x="385" y="170" text-anchor="middle" font-size="8" fill="#333">DT: ENRICHED_MEMBERS</text>
  <rect x="290" y="182" width="190" height="22" rx="3" fill="#ffffff" stroke="#283593"/>
  <text x="385" y="197" text-anchor="middle" font-size="8" fill="#333">DT: DEDUP_EVENTS</text>
  <path d="M500 150 L555 150" stroke="#6a1b9a" stroke-width="2" stroke-dasharray="5,3" marker-end="url(#arr3)"/>
  <rect x="510" y="130" width="40" height="16" rx="3" fill="#f3e5f5" stroke="#6a1b9a"/>
  <text x="530" y="141" text-anchor="middle" font-size="7" fill="#6a1b9a">DMF</text>
  <rect x="560" y="80" width="220" height="140" rx="8" fill="#e0f2f1" stroke="#00695c" stroke-width="2"/>
  <text x="670" y="102" text-anchor="middle" font-size="12" font-weight="bold" fill="#00695c">GOLD</text>
  <text x="670" y="118" text-anchor="middle" font-size="9" fill="#333">Dynamic Tables (INCREMENTAL)</text>
  <rect x="575" y="128" width="190" height="22" rx="3" fill="#ffffff" stroke="#00695c"/>
  <text x="670" y="143" text-anchor="middle" font-size="8" fill="#333">DT: DAILY_MEMBER_SUMMARY</text>
  <rect x="575" y="155" width="190" height="22" rx="3" fill="#ffffff" stroke="#00695c"/>
  <text x="670" y="170" text-anchor="middle" font-size="8" fill="#333">DT: FRAUD_SIGNALS</text>
  <rect x="575" y="182" width="190" height="22" rx="3" fill="#ffffff" stroke="#00695c"/>
  <text x="670" y="197" text-anchor="middle" font-size="8" fill="#333">DT: MEMBER_ACTIVITY</text>
  <path d="M785 150 L830 150" stroke="#333" stroke-width="2" marker-end="url(#arr3)"/>
  <rect x="795" y="80" width="80" height="140" rx="6" fill="#ede7f6" stroke="#4527a0" stroke-width="1.5"/>
  <text x="835" y="120" text-anchor="middle" font-size="8" font-weight="bold" fill="#4527a0">BI</text>
  <text x="835" y="150" text-anchor="middle" font-size="8" font-weight="bold" fill="#4527a0">AI</text>
  <text x="835" y="180" text-anchor="middle" font-size="8" font-weight="bold" fill="#4527a0">Share</text>
  <rect x="30" y="240" width="845" height="95" rx="6" fill="#f5f5f5" stroke="#757575" stroke-width="1"/>
  <text x="50" y="262" font-size="10" font-weight="bold" fill="#1565c0">Why Dynamic Tables (not dbt + Airflow):</text>
  <text x="50" y="280" font-size="9" fill="#333">1. Declarative: Define WHAT, not HOW &#8212; Snowflake handles scheduling, ordering, and incremental logic</text>
  <text x="50" y="296" font-size="9" fill="#333">2. Auto-DAG: Dependencies inferred from SQL references &#8212; no manual DAG definition or YAML configs</text>
  <text x="50" y="312" font-size="9" fill="#333">3. Snapshot-consistent: Downstream always reads a coherent point-in-time view of upstream data</text>
  <text x="50" y="328" font-size="9" fill="#333">4. Incremental by default: Only processes changed rows &#8212; no custom merge logic or partition sensing</text>
  <defs><marker id="arr3" markerWidth="10" markerHeight="7" refX="10" refY="3.5" orient="auto"><polygon points="0 0, 10 3.5, 0 7" fill="#333"/></marker></defs>
</svg>
