<svg viewBox="0 0 900 300" xmlns="http://www.w3.org/2000/svg" style="background:#ffffff; font-family: -apple-system, BlinkMacSystemFont, 'Segoe UI', Roboto, sans-serif;">
  <text x="450" y="30" text-anchor="middle" font-size="16" font-weight="bold" fill="#1a1a2e">UC13: Cortex Analyst — Native NL-to-SQL</text>
  <text x="450" y="50" text-anchor="middle" font-size="11" fill="#666">No external LLM infrastructure. No vector database. No RAG pipeline. All within Snowflake.</text>
  <rect x="30" y="80" width="180" height="130" rx="6" fill="#f5f5f5" stroke="#757575" stroke-width="1.5"/>
  <text x="120" y="100" text-anchor="middle" font-size="10" font-weight="bold" fill="#333">Analyst / Business User</text>
  <rect x="42" y="110" width="156" height="25" rx="12" fill="#e3f2fd" stroke="#1565c0"/>
  <text x="120" y="127" text-anchor="middle" font-size="8" fill="#0d47a1">"Show me fraud by region"</text>
  <rect x="42" y="142" width="156" height="25" rx="12" fill="#e3f2fd" stroke="#1565c0"/>
  <text x="120" y="159" text-anchor="middle" font-size="8" fill="#0d47a1">"Filter to last 30 days"</text>
  <rect x="42" y="174" width="156" height="25" rx="12" fill="#e3f2fd" stroke="#1565c0"/>
  <text x="120" y="191" text-anchor="middle" font-size="8" fill="#0d47a1">"Compare to prior quarter"</text>
  <path d="M215 145 L265 145" stroke="#333" stroke-width="2" marker-end="url(#arr5)"/>
  <rect x="270" y="70" width="280" height="150" rx="8" fill="#ede7f6" stroke="#4527a0" stroke-width="2"/>
  <text x="410" y="92" text-anchor="middle" font-size="11" font-weight="bold" fill="#4527a0">Cortex Analyst</text>
  <rect x="285" y="103" width="250" height="30" rx="4" fill="#ffffff" stroke="#4527a0"/>
  <text x="410" y="115" text-anchor="middle" font-size="8" font-weight="bold" fill="#4527a0">Semantic YAML Model</text>
  <text x="410" y="128" text-anchor="middle" font-size="7" fill="#333">Tables, dimensions, measures, time dimensions</text>
  <rect x="285" y="140" width="120" height="25" rx="4" fill="#ffffff" stroke="#4527a0"/>
  <text x="345" y="157" text-anchor="middle" font-size="8" fill="#333">NL Understanding</text>
  <rect x="415" y="140" width="120" height="25" rx="4" fill="#ffffff" stroke="#4527a0"/>
  <text x="475" y="157" text-anchor="middle" font-size="8" fill="#333">SQL Generation</text>
  <rect x="285" y="172" width="250" height="25" rx="4" fill="#d1c4e9" stroke="#4527a0"/>
  <text x="410" y="189" text-anchor="middle" font-size="8" fill="#311b92">Multi-turn conversation context</text>
  <path d="M555 145 L605 145" stroke="#333" stroke-width="2" marker-end="url(#arr5)"/>
  <rect x="610" y="70" width="260" height="150" rx="8" fill="#e0f2f1" stroke="#00695c" stroke-width="2"/>
  <text x="740" y="92" text-anchor="middle" font-size="11" font-weight="bold" fill="#00695c">Gold Iceberg Tables</text>
  <rect x="625" y="105" width="230" height="20" rx="3" fill="#ffffff" stroke="#00695c"/>
  <text x="740" y="119" text-anchor="middle" font-size="8" fill="#333">DAILY_MEMBER_SUMMARY</text>
  <rect x="625" y="130" width="230" height="20" rx="3" fill="#ffffff" stroke="#00695c"/>
  <text x="740" y="144" text-anchor="middle" font-size="8" fill="#333">FRAUD_SIGNALS</text>
  <rect x="625" y="155" width="230" height="20" rx="3" fill="#ffffff" stroke="#00695c"/>
  <text x="740" y="169" text-anchor="middle" font-size="8" fill="#333">MEMBER_ACTIVITY</text>
  <rect x="625" y="185" width="230" height="25" rx="4" fill="#c8e6c9" stroke="#2e7d32"/>
  <text x="740" y="202" text-anchor="middle" font-size="8" fill="#1b5e20">Multi-table joins executed automatically</text>
  <rect x="270" y="240" width="600" height="45" rx="6" fill="#ffebee" stroke="#c62828" stroke-width="1"/>
  <text x="570" y="258" text-anchor="middle" font-size="9" font-weight="bold" fill="#c62828">ELIMINATED by Cortex Analyst:</text>
  <text x="570" y="275" text-anchor="middle" font-size="9" fill="#c62828">ThoughtSpot license | Custom RAG pipeline | Vector database | LLM hosting | Embedding infrastructure</text>
  <defs><marker id="arr5" markerWidth="10" markerHeight="7" refX="10" refY="3.5" orient="auto"><polygon points="0 0, 10 3.5, 0 7" fill="#333"/></marker></defs>
</svg>
