<svg viewBox="0 0 900 280" xmlns="http://www.w3.org/2000/svg" style="background:#ffffff; font-family: -apple-system, BlinkMacSystemFont, 'Segoe UI', Roboto, sans-serif;">
  <text x="450" y="30" text-anchor="middle" font-size="16" font-weight="bold" fill="#1a1a2e">UC09: Elastic Multi-Cluster Performance</text>
  <rect x="30" y="55" width="130" height="190" rx="6" fill="#f5f5f5" stroke="#757575" stroke-width="1.5"/>
  <text x="95" y="75" text-anchor="middle" font-size="9" font-weight="bold" fill="#333">Concurrent Users</text>
  <circle cx="60" cy="100" r="12" fill="#e8eaf6" stroke="#3949ab"/>
  <text x="60" y="104" text-anchor="middle" font-size="7" fill="#3949ab">BI</text>
  <circle cx="95" cy="100" r="12" fill="#e8eaf6" stroke="#3949ab"/>
  <text x="95" y="104" text-anchor="middle" font-size="7" fill="#3949ab">BI</text>
  <circle cx="130" cy="100" r="12" fill="#e8eaf6" stroke="#3949ab"/>
  <text x="130" y="104" text-anchor="middle" font-size="7" fill="#3949ab">BI</text>
  <circle cx="60" cy="135" r="12" fill="#ede7f6" stroke="#6a1b9a"/>
  <text x="60" y="139" text-anchor="middle" font-size="7" fill="#6a1b9a">DS</text>
  <circle cx="95" cy="135" r="12" fill="#ede7f6" stroke="#6a1b9a"/>
  <text x="95" y="139" text-anchor="middle" font-size="7" fill="#6a1b9a">DS</text>
  <circle cx="130" cy="135" r="12" fill="#ede7f6" stroke="#6a1b9a"/>
  <text x="130" y="139" text-anchor="middle" font-size="7" fill="#6a1b9a">DS</text>
  <circle cx="60" cy="170" r="12" fill="#fff3e0" stroke="#e65100"/>
  <text x="60" y="174" text-anchor="middle" font-size="7" fill="#e65100">App</text>
  <circle cx="95" cy="170" r="12" fill="#fff3e0" stroke="#e65100"/>
  <text x="95" y="174" text-anchor="middle" font-size="7" fill="#e65100">App</text>
  <circle cx="130" cy="170" r="12" fill="#fff3e0" stroke="#e65100"/>
  <text x="130" y="174" text-anchor="middle" font-size="7" fill="#e65100">App</text>
  <text x="95" y="210" text-anchor="middle" font-size="8" fill="#333">50+ concurrent</text>
  <text x="95" y="224" text-anchor="middle" font-size="8" fill="#333">queries</text>
  <path d="M165 150 L215 150" stroke="#333" stroke-width="2" marker-end="url(#arr4)"/>
  <rect x="220" y="55" width="350" height="190" rx="8" fill="#e3f2fd" stroke="#29B5E8" stroke-width="2"/>
  <text x="395" y="77" text-anchor="middle" font-size="11" font-weight="bold" fill="#0277bd">Multi-Cluster Warehouse (Auto-Scale)</text>
  <rect x="235" y="90" width="65" height="55" rx="4" fill="#ffffff" stroke="#1565c0" stroke-width="1.5"/>
  <text x="267" y="112" text-anchor="middle" font-size="8" font-weight="bold" fill="#1565c0">Cluster 1</text>
  <text x="267" y="130" text-anchor="middle" font-size="7" fill="#333">XLARGE</text>
  <rect x="310" y="90" width="65" height="55" rx="4" fill="#ffffff" stroke="#1565c0" stroke-width="1.5"/>
  <text x="342" y="112" text-anchor="middle" font-size="8" font-weight="bold" fill="#1565c0">Cluster 2</text>
  <text x="342" y="130" text-anchor="middle" font-size="7" fill="#333">XLARGE</text>
  <rect x="385" y="90" width="65" height="55" rx="4" fill="#ffffff" stroke="#1565c0" stroke-width="1.5"/>
  <text x="417" y="112" text-anchor="middle" font-size="8" font-weight="bold" fill="#1565c0">Cluster 3</text>
  <text x="417" y="130" text-anchor="middle" font-size="7" fill="#333">XLARGE</text>
  <rect x="460" y="90" width="65" height="55" rx="4" fill="#e0e0e0" stroke="#9e9e9e" stroke-dasharray="3,3"/>
  <text x="492" y="112" text-anchor="middle" font-size="8" fill="#9e9e9e">...N</text>
  <text x="492" y="130" text-anchor="middle" font-size="7" fill="#9e9e9e">up to 10</text>
  <rect x="235" y="155" width="120" height="22" rx="3" fill="#bbdefb" stroke="#1565c0"/>
  <text x="295" y="170" text-anchor="middle" font-size="8" fill="#0d47a1">Query Acceleration</text>
  <rect x="365" y="155" width="120" height="22" rx="3" fill="#bbdefb" stroke="#1565c0"/>
  <text x="425" y="170" text-anchor="middle" font-size="8" fill="#0d47a1">Result Cache</text>
  <rect x="235" y="185" width="120" height="22" rx="3" fill="#c8e6c9" stroke="#2e7d32"/>
  <text x="295" y="200" text-anchor="middle" font-size="8" fill="#1b5e20">Per-second billing</text>
  <rect x="365" y="185" width="120" height="22" rx="3" fill="#c8e6c9" stroke="#2e7d32"/>
  <text x="425" y="200" text-anchor="middle" font-size="8" fill="#1b5e20">Auto-suspend 60s</text>
  <text x="395" y="235" text-anchor="middle" font-size="8" fill="#0277bd" font-style="italic">Scales from 1 to 10 clusters based on queue depth</text>
  <path d="M575 150 L630 150" stroke="#333" stroke-width="2" marker-end="url(#arr4)"/>
  <rect x="635" y="55" width="235" height="190" rx="8" fill="#e0f2f1" stroke="#00695c" stroke-width="2"/>
  <text x="752" y="77" text-anchor="middle" font-size="11" font-weight="bold" fill="#00695c">Gold Iceberg (100GB+)</text>
  <rect x="650" y="92" width="205" height="30" rx="4" fill="#ffffff" stroke="#00695c"/>
  <text x="752" y="112" text-anchor="middle" font-size="9" fill="#333">Standard queries (current data)</text>
  <rect x="650" y="130" width="205" height="45" rx="4" fill="#fff3e0" stroke="#e65100"/>
  <text x="752" y="148" text-anchor="middle" font-size="9" font-weight="bold" fill="#e65100">90-Day Time Travel</text>
  <text x="752" y="166" text-anchor="middle" font-size="8" fill="#333">AT(TIMESTAMP => -90 days)</text>
  <rect x="650" y="183" width="205" height="30" rx="4" fill="#f3e5f5" stroke="#6a1b9a"/>
  <text x="752" y="203" text-anchor="middle" font-size="9" fill="#6a1b9a">Latency measured via QUERY_HISTORY</text>
  <text x="752" y="235" text-anchor="middle" font-size="8" fill="#00695c" font-style="italic">Iceberg snapshots = free time travel</text>
  <defs><marker id="arr4" markerWidth="10" markerHeight="7" refX="10" refY="3.5" orient="auto"><polygon points="0 0, 10 3.5, 0 7" fill="#333"/></marker></defs>
</svg>
