<svg viewBox="0 0 1000 350" xmlns="http://www.w3.org/2000/svg" style="background:#ffffff; font-family: -apple-system, BlinkMacSystemFont, 'Segoe UI', Roboto, sans-serif;">
  <text x="500" y="28" text-anchor="middle" font-size="16" font-weight="bold" fill="#1a1a2e">EXTRA: Data Lineage + Cost Observability</text>
  <text x="500" y="48" text-anchor="middle" font-size="11" fill="#666">Full pipeline traceability and per-stage cost attribution — native, no external tools</text>
  <!-- Bronze -->
  <rect x="20" y="80" width="180" height="180" rx="6" fill="#fff8e1" stroke="#f57f17" stroke-width="1.5"/>
  <text x="110" y="100" text-anchor="middle" font-size="10" font-weight="bold" fill="#f57f17">BRONZE (Iceberg)</text>
  <rect x="32" y="108" width="156" height="18" rx="3" fill="#ffffff" stroke="#f57f17"/>
  <text x="110" y="121" text-anchor="middle" font-size="7" fill="#333">RAW_TRANSACTIONS (500K)</text>
  <rect x="32" y="130" width="156" height="18" rx="3" fill="#ffffff" stroke="#f57f17"/>
  <text x="110" y="143" text-anchor="middle" font-size="7" fill="#333">RAW_MEMBERS (10K)</text>
  <rect x="32" y="152" width="156" height="18" rx="3" fill="#ffffff" stroke="#f57f17"/>
  <text x="110" y="165" text-anchor="middle" font-size="7" fill="#333">RAW_ALERTS (5K)</text>
  <rect x="32" y="174" width="156" height="18" rx="3" fill="#ffffff" stroke="#f57f17"/>
  <text x="110" y="187" text-anchor="middle" font-size="7" fill="#333">RAW_INSTITUTIONS (50)</text>
  <rect x="32" y="196" width="156" height="18" rx="3" fill="#ffffff" stroke="#f57f17"/>
  <text x="110" y="209" text-anchor="middle" font-size="7" fill="#333">STREAMING_EVENTS (100K)</text>
  <rect x="32" y="222" width="156" height="25" rx="4" fill="#fff9c4" stroke="#f57f17"/>
  <text x="110" y="238" text-anchor="middle" font-size="7" font-weight="bold" fill="#f57f17">WH: ews_ingest_wh</text>
  <!-- Arrows Bronze to Silver -->
  <path d="M205 130 L240 130" stroke="#333" stroke-width="1.5" marker-end="url(#arr9)"/>
  <path d="M205 145 L240 145" stroke="#333" stroke-width="1.5" marker-end="url(#arr9)"/>
  <path d="M205 165 L240 165" stroke="#333" stroke-width="1.5" marker-end="url(#arr9)"/>
  <path d="M205 190 L240 190" stroke="#333" stroke-width="1.5" marker-end="url(#arr9)"/>
  <path d="M205 208 L240 175" stroke="#333" stroke-width="1.5" marker-end="url(#arr9)"/>
  <!-- Silver -->
  <rect x="245" y="80" width="190" height="180" rx="6" fill="#e8eaf6" stroke="#283593" stroke-width="1.5"/>
  <text x="340" y="100" text-anchor="middle" font-size="10" font-weight="bold" fill="#283593">SILVER (Dynamic Tables)</text>
  <rect x="257" y="108" width="166" height="18" rx="3" fill="#ffffff" stroke="#283593"/>
  <text x="340" y="121" text-anchor="middle" font-size="7" fill="#333">CLEANSED_TRANSACTIONS</text>
  <rect x="257" y="130" width="166" height="18" rx="3" fill="#ffffff" stroke="#283593"/>
  <text x="340" y="143" text-anchor="middle" font-size="7" fill="#333">ENRICHED_MEMBERS</text>
  <rect x="257" y="152" width="166" height="18" rx="3" fill="#ffffff" stroke="#283593"/>
  <text x="340" y="165" text-anchor="middle" font-size="7" fill="#333">ENRICHED_ALERTS</text>
  <rect x="257" y="174" width="166" height="18" rx="3" fill="#ffffff" stroke="#283593"/>
  <text x="340" y="187" text-anchor="middle" font-size="7" fill="#333">DEDUP_EVENTS</text>
  <rect x="257" y="222" width="166" height="25" rx="4" fill="#c5cae9" stroke="#283593"/>
  <text x="340" y="238" text-anchor="middle" font-size="7" font-weight="bold" fill="#283593">WH: ews_transform_wh</text>
  <!-- Arrows Silver to Gold -->
  <path d="M440 120 L480 120" stroke="#333" stroke-width="1.5" marker-end="url(#arr9)"/>
  <path d="M440 145 L480 145" stroke="#333" stroke-width="1.5" marker-end="url(#arr9)"/>
  <path d="M440 165 L480 160" stroke="#333" stroke-width="1.5" marker-end="url(#arr9)"/>
  <path d="M440 185 L480 175" stroke="#333" stroke-width="1.5" marker-end="url(#arr9)"/>
  <!-- Gold -->
  <rect x="485" y="80" width="200" height="180" rx="6" fill="#e0f2f1" stroke="#00695c" stroke-width="1.5"/>
  <text x="585" y="100" text-anchor="middle" font-size="10" font-weight="bold" fill="#00695c">GOLD (Dynamic Tables)</text>
  <rect x="497" y="108" width="176" height="18" rx="3" fill="#ffffff" stroke="#00695c"/>
  <text x="585" y="121" text-anchor="middle" font-size="7" fill="#333">DAILY_MEMBER_SUMMARY</text>
  <rect x="497" y="130" width="176" height="18" rx="3" fill="#ffffff" stroke="#00695c"/>
  <text x="585" y="143" text-anchor="middle" font-size="7" fill="#333">MEMBER_ACTIVITY</text>
  <rect x="497" y="152" width="176" height="18" rx="3" fill="#ffffff" stroke="#00695c"/>
  <text x="585" y="165" text-anchor="middle" font-size="7" fill="#333">FRAUD_SIGNALS</text>
  <rect x="497" y="174" width="176" height="18" rx="3" fill="#ffffff" stroke="#00695c"/>
  <text x="585" y="187" text-anchor="middle" font-size="7" fill="#333">INSTITUTION_SUMMARY</text>
  <rect x="497" y="196" width="176" height="18" rx="3" fill="#c8e6c9" stroke="#2e7d32"/>
  <text x="585" y="209" text-anchor="middle" font-size="7" fill="#1b5e20">SPENDING_ANOMALIES (ML)</text>
  <rect x="497" y="222" width="176" height="25" rx="4" fill="#b2dfdb" stroke="#00695c"/>
  <text x="585" y="238" text-anchor="middle" font-size="7" font-weight="bold" fill="#00695c">WH: ews_analytics_wh</text>
  <!-- Arrows Gold to Feature Store / Analytics -->
  <path d="M690 155 L730 155" stroke="#333" stroke-width="1.5" marker-end="url(#arr9)"/>
  <path d="M690 190 L730 190" stroke="#333" stroke-width="1.5" marker-end="url(#arr9)"/>
  <!-- Feature Store + Analytics -->
  <rect x="735" y="80" width="240" height="180" rx="6" fill="#fce4ec" stroke="#880e4f" stroke-width="1.5"/>
  <text x="855" y="100" text-anchor="middle" font-size="10" font-weight="bold" fill="#880e4f">ANALYTICS + FEATURES</text>
  <rect x="747" y="108" width="216" height="18" rx="3" fill="#ffffff" stroke="#880e4f"/>
  <text x="855" y="121" text-anchor="middle" font-size="7" fill="#333">ONLINE_MEMBER_FEATURES (DT)</text>
  <rect x="747" y="130" width="216" height="18" rx="3" fill="#ffffff" stroke="#880e4f"/>
  <text x="855" y="143" text-anchor="middle" font-size="7" fill="#333">EWS_FRAUD_ANALYTICS (Semantic View)</text>
  <rect x="747" y="152" width="216" height="18" rx="3" fill="#ffffff" stroke="#880e4f"/>
  <text x="855" y="165" text-anchor="middle" font-size="7" fill="#333">EWS_FRAUD_AGENT (Cortex Agent)</text>
  <rect x="747" y="174" width="216" height="18" rx="3" fill="#ffffff" stroke="#880e4f"/>
  <text x="855" y="187" text-anchor="middle" font-size="7" fill="#333">ALERT_SEARCH (Cortex Search)</text>
  <rect x="747" y="196" width="216" height="18" rx="3" fill="#ffffff" stroke="#880e4f"/>
  <text x="855" y="209" text-anchor="middle" font-size="7" fill="#333">EWS_POC_DASHBOARD (Streamlit)</text>
  <rect x="747" y="222" width="216" height="25" rx="4" fill="#f8bbd0" stroke="#880e4f"/>
  <text x="855" y="238" text-anchor="middle" font-size="7" font-weight="bold" fill="#880e4f">WH: ews_ai_wh</text>
  <!-- Governance bar -->
  <rect x="20" y="275" width="955" height="25" rx="6" fill="#29B5E8" stroke="none"/>
  <text x="500" y="292" text-anchor="middle" font-size="10" font-weight="bold" fill="#ffffff">Horizon Governance: Tags | Masking | Row Access | DMFs | ACCOUNT_USAGE Lineage + Cost Tracking</text>
  <!-- Cost bar -->
  <rect x="20" y="310" width="955" height="25" rx="6" fill="#e8f5e9" stroke="#2e7d32" stroke-width="1"/>
  <text x="500" y="327" text-anchor="middle" font-size="9" fill="#2e7d32">Per-stage cost attribution via WAREHOUSE_METERING_HISTORY: ingest | transform | analytics | AI — visible in Streamlit Cost tab</text>
  <defs><marker id="arr9" markerWidth="10" markerHeight="7" refX="10" refY="3.5" orient="auto"><polygon points="0 0, 10 3.5, 0 7" fill="#333"/></marker></defs>
</svg>
